<svg width="62" height="32" viewBox="0 0 62 32" fill="none" xmlns="http://www.w3.org/2000/svg">
<rect x="0.5" y="0.5" width="61" height="31" rx="2.5" fill="white"/>
<path d="M58.3118 8.5H4V22.7948H58.3118V8.5Z" fill="white"/>
<path d="M10.1484 13.5086V20.2217H11.5144V17.2874H14.3536V15.9888H11.5144V14.8046H14.4027V13.5086H10.1484Z" fill="#0994DD"/>
<path d="M18.3713 19.2591C18.3713 18.7048 18.3713 17.6432 18.3713 17.0745C18.3713 16.3528 17.9997 15.4413 16.4226 15.4413C15.8004 15.4413 15.2965 15.5799 14.9548 15.7174V16.9068C15.3455 16.6654 15.7772 16.5353 16.2475 16.5353C16.6736 16.5353 17.0974 16.6794 17.0974 17.1792C17.0974 17.1906 17.0974 17.1998 17.0974 17.2113C16.8881 17.1372 16.622 17.0867 16.3459 17.0867C15.2715 17.0867 14.4805 17.6499 14.4805 18.7542C14.4805 19.8407 15.3677 20.251 16.079 20.251C16.5232 20.251 16.9065 20.1072 17.1535 19.9075C17.1793 20.0483 17.2157 20.1618 17.2581 20.2211H18.6613C18.4922 20.0851 18.3713 19.8127 18.3713 19.2591ZM15.7598 18.6115C15.7598 18.2411 16.079 17.9908 16.5353 17.9908C16.7672 17.9908 16.9526 18.0439 17.0974 18.122C17.0974 18.4073 17.0974 18.6989 17.0974 18.9215C16.9681 19.0365 16.7469 19.1751 16.42 19.1751C16.0002 19.1751 15.7598 18.9362 15.7598 18.6115Z" fill="#0994DD"/>
<path d="M46.0865 19.2591C46.0865 18.7048 46.0865 17.6432 46.0865 17.0745C46.0865 16.3528 45.7157 15.4413 44.1389 15.4413C43.5152 15.4413 43.0106 15.5799 42.6697 15.7174V16.9068C43.0607 16.6654 43.4935 16.5353 43.9638 16.5353C44.3888 16.5353 44.8104 16.6794 44.8104 17.1792C44.8104 17.1906 44.8104 17.1998 44.8104 17.2113C44.6025 17.1372 44.3361 17.0867 44.0615 17.0867C42.9852 17.0867 42.1953 17.6499 42.1953 18.753C42.1953 19.8407 43.0821 20.251 43.7939 20.251C44.238 20.251 44.6217 20.1072 44.8687 19.9075C44.8956 20.0483 44.9302 20.1618 44.973 20.2211H46.3762C46.2085 20.0851 46.0865 19.8127 46.0865 19.2591ZM43.475 18.6115C43.475 18.2411 43.7939 17.9908 44.2505 17.9908C44.482 17.9908 44.6663 18.0439 44.8104 18.122C44.8104 18.4073 44.8104 18.6989 44.8104 18.9215C44.6818 19.0365 44.4643 19.174 44.1352 19.174C43.7139 19.174 43.475 18.9362 43.475 18.6115Z" fill="#0994DD"/>
<path d="M24.0406 15.4887C23.4863 15.4887 23.0804 15.6217 22.6993 16.0279C22.4303 15.6888 22.0101 15.4887 21.4985 15.4887C21.0798 15.4887 20.6876 15.6114 20.3312 15.9221V15.5347H19.1406V20.2217H20.4222V17.0629C20.5759 16.872 20.7948 16.7102 21.0974 16.7102C21.4841 16.7102 21.703 16.9744 21.703 17.4525V20.2217H23.0111V17.0294C23.1586 16.8421 23.3735 16.7102 23.6768 16.7102C24.0922 16.7102 24.2828 17.0061 24.2828 17.4525V20.2217H25.5901V16.9744C25.5901 16.0943 25.0269 15.4887 24.0406 15.4887Z" fill="#0994DD"/>
<path d="M28.5977 13.5086H29.8789V20.2217H28.5977V13.5086Z" fill="#0994DD"/>
<path d="M38.5338 15.5956L36.8372 13.5086H35.4336V20.2217H36.8372V15.5956L38.5338 17.8414L40.2289 15.5956V20.2217H41.6321V13.5086H40.2289L38.5338 15.5956Z" fill="#0994DD"/>
<path d="M26.4336 15.5347H27.7166V20.2217H26.4336V15.5347Z" fill="#0994DD"/>
<path d="M27.0741 13.4065C26.6141 13.4065 26.2422 13.7792 26.2422 14.2369C26.2422 14.6988 26.6141 15.0703 27.0741 15.0703C27.5344 15.0703 27.9075 14.6988 27.9075 14.2369C27.9075 13.7792 27.5344 13.4065 27.0741 13.4065Z" fill="#0994DD"/>
<path d="M48.0224 16.0279V15.5347H46.7969V20.2217H48.0784V17.2778C48.2638 17.0393 48.5657 16.8241 48.9995 16.8241C49.3372 16.8241 49.5823 16.9567 49.7212 17.0577V15.649C49.5646 15.5347 49.3088 15.4776 49.0976 15.4776C48.7334 15.4776 48.3339 15.6162 48.0224 16.0279Z" fill="#0994DD"/>
<path d="M52.478 19.0244C52.0715 19.0244 51.917 18.71 51.917 18.3621V16.7632H53.0099V15.5347H51.917V13.7647L50.652 14.3032V15.5347H49.9609V16.7632H50.652V18.5482C50.652 19.5217 51.0405 20.2725 52.1843 20.2725C52.5259 20.2725 52.8274 20.2216 53.0261 20.1423V18.8457C52.9295 18.9537 52.7534 19.0244 52.478 19.0244Z" fill="#0994DD"/>
<path d="M31.4246 21.4365H32.8658L35.0283 15.5344H33.6239L32.7331 18.0662L31.7655 15.5344H30.3008L32.0678 19.7842L31.4246 21.4365Z" fill="#0994DD"/>
<path d="M4 8.50028H58.3118V12.0752H4V8.50028Z" fill="#19AE48"/>
<path d="M4 21.6501H58.3118V22.7949H4V21.6501Z" fill="#0994DD"/>
<rect x="0.5" y="0.5" width="61" height="31" rx="2.5" stroke="#EEEEEE"/>
</svg>
